<svg width="94" height="34" viewBox="0 0 94 34" fill="none" xmlns="http://www.w3.org/2000/svg">
<path d="M47.0643 12.0497V14.4346H40.9585V21.5763H48.2962V7.27441H50.7428V21.5763L48.2962 23.9632H40.9585L38.5112 21.5763V14.4346L40.9585 12.0497H47.0643Z" fill="#262424"/>
<path d="M62.6573 12.0498L65.1048 14.4347V16.8199L62.6573 19.2072H56.4819V16.8199H62.6573V14.4347H55.322V21.5764H63.8738V23.9633H55.322L52.8748 21.5764V14.4347L55.322 12.0498H62.6573Z" fill="#262424"/>
<path d="M77.0211 12.0498L79.4668 14.4347V21.5764L77.0211 23.9633H70.9148V21.5764H77.0211V14.4347H69.6838V28.7188H67.2358V14.4347L69.6838 12.0498H77.0211Z" fill="#262424"/>
<path d="M93.8288 14.4347H84.0451V16.8199H91.3829L93.8286 19.2072V21.5764L91.3829 23.9633H81.5977V21.5764H91.3829V19.2072H84.0451L81.5977 16.8199V14.4347L84.0451 12.0498H93.8288V14.4347Z" fill="#262424"/>
<path d="M34.3082 16.0349C34.3448 13.3397 32.8349 10.0606 32.8349 10.0606C32.8349 10.0606 32.4481 9.10824 31.9599 8.6052C31.4717 8.10216 30.4305 7.54393 30.4305 7.54393C30.4305 7.54393 30.5488 7.32594 30.5488 6.85891C30.5488 6.39189 30.029 5.86707 29.897 5.73361C29.7651 5.60014 27.8436 3.52913 25.4768 2.33418C23.1105 1.13923 20.716 0.303711 17.2628 0.303711H17.2475C13.7942 0.303711 11.4 1.13923 9.03322 2.33418C6.66643 3.52913 4.74563 5.60014 4.61347 5.73361C4.4813 5.86707 3.96149 6.39189 3.96149 6.85891C3.96149 7.32594 4.08017 7.54393 4.08017 7.54393C4.08017 7.54393 3.03877 8.10216 2.55078 8.6052C2.06279 9.10824 1.67602 10.0606 1.67602 10.0606C1.67602 10.0606 0.165417 13.3397 0.202326 16.0349C0.202326 16.0349 0.162323 16.5412 1.03774 17.4108C1.03774 17.4108 0.210282 18.2026 0.305758 19.2276C0.305758 19.2276 0.464886 20.8421 1.13344 22.5815C1.80178 24.3203 2.42259 25.361 2.78859 25.8736C3.15458 26.3861 4.42782 27.2089 5.08046 27.4262C5.08046 27.4111 4.61899 28.3739 5.23981 29.1499C5.23981 29.1499 9.56873 33.7928 17.2402 33.917H17.2703C24.9415 33.7928 29.2707 29.1499 29.2707 29.1499C29.8915 28.3737 29.43 27.4111 29.43 27.4262C30.0827 27.2089 31.3557 26.3861 31.7217 25.8736C32.0881 25.361 32.7085 24.3205 33.377 22.5815C34.0452 20.8424 34.2045 19.2276 34.2045 19.2276C34.3 18.2026 33.4725 17.4108 33.4725 17.4108C34.3479 16.5412 34.3082 16.0349 34.3082 16.0349ZM2.8056 9.01962C3.30951 8.43616 4.31709 7.96072 4.31709 7.96072C4.31709 7.96072 5.49507 9.6296 10.6857 10.4828C14.6984 11.0939 17.2384 11.013 17.2384 11.013H17.2519C17.2519 11.013 19.792 11.0939 23.8047 10.4828C28.9953 9.6296 30.1733 7.96072 30.1733 7.96072C30.1733 7.96072 31.1813 8.43616 31.685 9.01962C32.1887 9.60308 32.4364 10.4453 32.4364 10.4453C32.4364 10.4453 31.7471 12.5493 26.5931 13.5735C21.4394 14.5976 17.2612 14.5256 17.2612 14.5256H17.2292C17.2292 14.5256 13.051 14.5976 7.89701 13.5735C2.74306 12.5493 2.05395 10.4453 2.05395 10.4453C2.05395 10.4453 2.3017 9.60308 2.8056 9.01962ZM28.9129 28.7928C28.4401 29.3694 27.5143 30.0803 27.2091 30.234C26.9039 30.3877 25.2103 31.1562 21.7829 31.5504C19.1729 31.8962 17.2466 31.8 17.2466 31.8C17.2466 31.8 15.3163 31.896 12.7064 31.5504C9.27921 31.1562 7.58539 30.3875 7.27995 30.234C6.97452 30.0805 6.04893 29.3694 5.57619 28.7928C5.10345 28.2163 5.56646 27.6207 5.56646 27.6207C5.56646 27.6207 7.75269 28.5429 11.3278 28.9847C14.9028 29.427 17.2369 29.3405 17.2369 29.3405H17.2528C17.2528 29.3405 19.5869 29.4267 23.1617 28.9847C26.7366 28.5429 28.923 27.6207 28.923 27.6207C28.923 27.6207 29.3858 28.2163 28.9129 28.7928ZM33.703 18.7636C33.7665 19.3102 33.5161 20.1974 33.5161 20.1974C33.5161 20.1974 33.4725 20.4532 33.2424 20.6392C33.0124 20.8253 30.6058 22.8855 24.1074 23.6266C24.1074 23.6266 20.8791 24.0848 17.2506 24.0579H17.223C13.5947 24.0848 10.3661 23.6266 10.3661 23.6266C3.868 22.8853 1.46142 20.8253 1.23113 20.6392C1.00083 20.4532 0.957296 20.1974 0.957296 20.1974C0.957296 20.1974 0.707334 19.3102 0.770985 18.7636C0.834414 18.2174 1.41766 17.7174 1.41766 17.7174C1.41766 17.7174 2.50216 18.6001 5.33042 19.4626C8.15869 20.3251 13.4291 21.0125 17.223 20.9314H17.2506C21.0447 21.0123 26.3149 20.3251 29.1434 19.4626C31.9716 18.6001 33.0559 17.7174 33.0559 17.7174C33.0559 17.7174 33.6396 18.2174 33.703 18.7636Z" fill="#02AA4E"/>
</svg>
